<svg version="1" xmlns="http://www.w3.org/2000/svg" width="450.667" height="450.667" viewBox="0 0 338.000000 338.000000"><path d="M172.8 14.6c-.4.8-.3 82.6.1 84.5 0 .4 7.4.7 16.4.6 15.7 0 16.3 0 18.4-2.3 2.8-3 6.6-3.1 9.3-.2 2.7 2.9 2.5 6.4-.5 9.2-2.9 2.7-5.7 2.5-9.2-.7-2-1.8-3.6-1.9-17-1.9-8.1 0-15.5 0-16.3.1-1.2.1-1.5 1.5-1.4 7.3.1 4 .2 7.8.3 8.5.1.8 7.4 1.2 28 1.2h27.9l4.8-5.2c2.7-2.9 11.2-12.4 18.9-21.2 7.7-8.8 15.5-17.7 17.4-19.8 8-8.8 10.1-11.2 10.1-12 0-1.3-11.1-11.6-19.3-17.8-18.5-14-39.1-23.3-61.6-27.9-11.4-2.3-25.6-3.6-26.3-2.4zM78.6 43.6c-.9.8-1.6 2.1-1.6 2.8C77 48 79.9 68 80.5 70c.2.8.6 3.7 1 6.4l.6 4.9-5.3-.6c-8.3-1-13.7-1.8-21.8-3.2-9.5-1.6-11.9-.8-12 4.1 0 2.9 1.8 4.2 6.6 4.9 6.3.9 11.7 1.7 14.3 2.2 1.3.2 6.7 1 12 1.8l9.6 1.5 10.8 10.8 10.9 10.9-11.3-1.7c-6.3-1-13.4-2.1-15.9-2.4-2.5-.3-5.6-.8-7-1.1-1.4-.3-5.5-.8-9.2-1.2-6.5-.6-6.8-.5-7.9 1.9-2.5 5.5.2 6.9 18.1 9.3 3.2.4 11 1.6 13.1 2 .9.2 4 .6 6.9 1 2.9.4 6 .8 6.9 1 .9.1 5.2.8 9.6 1.5l8 1.2 9.2 9.1 9.1 9-2.8 5.1c-1.6 2.8-3.4 7.2-4 9.7l-1.2 4.7h-21.6l-21.5-.1-19.6-14.3c-10.9-8-20.5-14.4-21.7-14.4-1.2 0-2.7.7-3.4 1.4-2.7 3.4-.7 6 12.3 15.7 7 5.2 13.2 10 13.7 10.5.7.7-2.1 1.1-8.7 1.2l-9.8.1-12.8-9.5c-7.3-5.4-13.7-9.4-15-9.4-2.9 0-4.7 1.8-4.7 4.7 0 1.8 2.5 4.2 11 10.4 6.1 4.4 11 8.2 11 8.4 0 .3-5 4.1-11 8.5-6.1 4.5-11 8.7-11 9.3.1 3.3 1.4 5.5 3.6 6 2 .3 5.4-1.7 15.7-9.1l13.1-9.6 9.8-.1c5.4 0 9.8.2 9.8.5s-6.3 5.1-14 10.7c-11.3 8.3-14 10.7-14 12.7 0 2.4 1.2 3.8 4.2 4.9 1.1.4 8.1-4.2 21.5-14.1l19.9-14.7h42.8l2.4 7c1.3 3.9 3.3 8.2 4.3 9.6l1.9 2.7-9.1 9c-9.2 9.2-9.4 9.3-19.4 10.7-4.3.7-13.9 2.1-19.5 3-4.3.7-8.3 1.2-13.5 2-2.2.3-5.1.7-6.5 1-1.4.3-4.3.7-6.5 1.1-3.7.5-7.5 3.3-7.5 5.5s4.1 4.9 6.8 4.5c8.3-1.4 28.4-4.5 32.7-5.1 2.8-.3 6.7-1 8.8-1.5 3.8-.8 3.8-.8 2 1.2-7.2 8.1-19.9 19.9-21.7 20.3-1.1.2-6.8 1.1-12.6 2-10.5 1.7-11.7 1.8-20 3-6.3.9-8 2.1-8 5.5 0 5 2 5.3 21 2.4 9.5-1.4 17.4-2.3 17.6-2.1.4.4.1 3.2-2.1 16.7-.2 1.4-.7 4.5-1 7-.4 2.5-.9 5.9-1.1 7.7-.7 4.2 1.1 7.3 4 7.3 3.2 0 5.3-2.8 5.9-8 .9-6.9 4.6-31.2 5.2-33.5.2-1.1 5.2-6.7 11-12.5l10.6-10.5-.7 5c-.3 2.7-.7 5.7-.9 6.5-.3 1.4-2.1 13.7-3 20-.5 3.9-1.7 11.3-2.1 13.5-.9 4.8 2.9 8.5 6.6 6.5 1.7-.9 4.4-7.6 3.8-9.7-.1-.4.1-2.2.5-3.8.3-1.7.9-5 1.2-7.5.3-2.5 1.4-9.9 2.5-16.5 1-6.6 2.2-14.3 2.6-17 .3-2.8.8-5.9 1-7 .2-1.1 4.4-6 9.3-10.9l8.9-8.9 2.9 2.1c3.1 2.2 14.5 6.4 15.2 5.6.3-.3.6-2.4.6-4.7l.1-4.2-6.7-3.3c-11.4-5.5-17.3-14.8-17.2-27.3.1-11.2 8.2-22.9 18.6-26.7 5-1.9 5-1.9 5.2-6.7l.3-4.7-3.7.6c-2 .3-6.3 1.9-9.6 3.6l-5.9 3.1-8.9-8.9c-5.4-5.4-9.1-9.9-9.2-11.3-.2-1.3-.6-4.2-.9-6.4-.4-2.2-1.1-6.9-1.6-10.5-.5-3.6-1.2-7.4-1.4-8.5-.2-1.1-.7-4.3-1-7-.4-2.8-.9-5.7-1.1-6.5-.2-.8-.6-3.8-1-6.5C116.9 57 116.1 55 112 55c-3.5 0-5.3 2.6-4.6 6.7.3 1.5 1.4 9.1 2.6 16.8 1.1 7.7 2.3 15.1 2.5 16.5.2 1.4.7 4.5 1 7l.6 4.5-10.1-10C98.4 91 93.5 85.8 93 85c-.4-.8-1.1-3.5-1.4-6-.3-2.5-.8-5.6-1-7-.3-1.4-.9-5.7-1.5-9.5-.6-3.9-1.3-8.1-1.5-9.5-.3-1.4-.5-3.5-.5-4.8-.1-2.5-3.4-6.2-5.5-6.2-.8 0-2.2.7-3 1.6z"/><path d="M257.1 95.4L230.9 125h-58.5l.2 8.7c.1 4.9.2 9.1.3 9.4.1.4 14.1.6 31.3.6h31.2l3.6-3.7c1.9-2 6.2-6.8 9.5-10.6 12.7-14.4 39-44 41.8-47.1 3.5-3.8 3.3-4.7-3.2-12.2l-3.7-4.3-26.3 29.6z"/><path d="M290.6 87.8c-2.1 2.6-5.7 6.7-8 9.2-2.3 2.5-7.3 8.1-11.1 12.5-3.9 4.4-7.2 8.2-7.5 8.5-.3.3-5.4 6.1-11.5 13-6 6.9-11.8 13.4-12.8 14.5-1.7 1.9-3.1 2-34.5 2.1l-32.7.1v8.6c-.1 7.1.2 8.7 1.5 8.8 4.7.5 68.3.3 68.8-.1.6-.4 10.1-10.9 19.8-22 16.2-18.4 37.2-42 39.2-44.2l2.4-2.7-3.6-6.5c-2-3.6-4.2-6.6-4.9-6.5-.7 0-2.9 2.1-5.1 4.7zM211.3 99.7c-.7.2-1.3 1.4-1.3 2.5 0 1.4.6 1.9 2.3 1.6 1.4-.2 2.2-1 2.2-2.2 0-2.1-1.2-2.8-3.2-1.9z"/><path d="M298.9 108.2c-9.2 10.3-23.4 26.3-29.6 33.4-1 1.2-5 5.7-8.9 10-3.9 4.3-9.1 10.2-11.5 13l-4.4 5.1-35.5.1c-19.5 0-35.7.1-36.1.1-.3.1-.5 2.2-.4 4.8l.1 4.8 61.2.1c57 .1 61.4 0 62.5-1.6 3-4.3 10.1-2.9 11.2 2.2.7 3.1-1.5 7.7-3.8 7.9-3 .3-5.4-.4-7.3-2.2-2-1.9-4.1-1.9-63-1.7l-60.9.3v5l.1 5 45.7.3c45.2.3 45.9.2 47.5-1.8 1.8-2.2 5.4-3.3 7.9-2.3 2.4.9 4.3 6.3 3.1 8.9-2 4.3-9.9 4.9-11.4.9-.5-1.3-6.4-1.5-46.9-1.5h-46.2l.2 5.2c.2 2.9.3 5.5.4 5.8.1.3 18.4.5 40.9.5 22.4-.1 41.5.1 42.4.4.9.3 7.2 6 14 12.6 8.4 8.3 12.9 12 14.1 11.7 5.1-1 9.4 3.3 8.1 8.2-.6 2.4-4.1 4.6-7.4 4.6-2.6 0-5.9-4.6-5.4-7.4.3-1.8-2-4.5-12.2-14.2l-12.5-11.9h-41c-22.5 0-40.9.2-41 .5-.1.3-.2 4-.3 8.2l-.2 7.8h64.1l12.9 12.3c10.2 9.9 13.3 12.3 15.1 11.9 5.5-1 9.3 5.4 6.1 10.3-1.2 1.8-2.5 2.5-5 2.5-4 0-6.6-2.6-6.6-6.7 0-2.5-1.9-4.8-12.1-14.6l-12-11.7h-62.5l.1 9.3v9.2l20 .2c11 .1 21.6.2 23.5.2 3.1.1 5 1.6 16.1 12.5 10.9 10.7 13 12.3 15.2 11.9 1.9-.4 3.3.2 5.1 2 2.8 2.8 3.2 5.3 1.3 7.8-4.7 6.2-12 3.3-12.2-4.8 0-1.5-3.9-6-12-13.8-6.6-6.3-12.4-11.5-13-11.6-1.4-.1-41.8-.1-43 0-.7.1-1 11.1-1 31.4 0 33.5-.1 33.1 5 32.2 1.1-.2 4.7-.7 8-1 11.7-1.2 19.4-2.8 31.8-6.9 34-11.1 65.9-37.4 84.2-69.4 7.4-13 14.8-32.2 17-44.1.3-1.4.7-3.7 1-5.1 2-9.6 2.7-33.7 1.3-45.5-1.6-13.9-5.7-29.1-11.6-42.8l-2.9-6.8-7.4 8.3z"/><path d="M299.7 179.7c-1.5 1.4-.7 4.3 1.2 4.3 2.6 0 3.6-1.7 2.1-3.5-1.4-1.6-2.3-1.9-3.3-.8zM269 195.5c-.8 1-.7 1.7.5 2.9 1.9 1.9 3.5 1.3 3.5-1.4 0-2.3-2.5-3.3-4-1.5zM283.7 240.4c-.6 1.5 1.1 3.6 2.9 3.6 1.4 0 2.3-2 1.7-3.8-.6-1.6-4-1.5-4.6.2zM264.1 259.9c-1.9 1.2-.6 4.3 1.6 3.9 1-.2 1.8-1.2 1.8-2.2 0-2.2-1.4-2.9-3.4-1.7zM246.1 283.4c-.9 1.1-.8 1.8.5 3 2.2 2.3 4.8.3 3.3-2.5-1.2-2.3-2.2-2.4-3.8-.5z"/></svg>